<svg xmlns="http://www.w3.org/2000/svg" xmlns:xlink="http://www.w3.org/1999/xlink" version="1.1"
    x="0px" y="0px" viewBox="0 0 100 125" style="fill:white" enable-background="new 0 0 100 100" xml:space="preserve">
    <path d="M85.493,60.181c-3.117-5.788-7.414-11.058-12.891-14.802c-0.047-0.034-0.098-0.061-0.145-0.095  
    c-0.231-0.427-0.474-0.85-0.737-1.264c-1.936-3.245-4.972-5.776-8.379-7.329c-3.413-1.572-7.258-2.176-10.979-1.762  
    c-1.871,0.188-3.678,0.724-5.427,1.194c-1.768,0.466-3.536,0.929-5.316,1.339c-3.556,0.831-7.146,1.524-10.77,1.942  
    c-3.619,0.427-7.282,0.607-10.916,0.259c-0.05-0.005-0.1-0.012-0.151-0.017c-1.479-0.424-2.964-0.98-4.147-1.995  
    c1.004,0.911,2.252,1.482,3.53,1.924c-3.363-0.397-6.702-1.278-9.673-2.965c3.145,1.904,6.768,2.906,10.407,3.358  
    c0.264,0.032,0.53,0.043,0.794,0.07c1.342,0.349,2.715,0.581,4.095,0.705c3.259,0.32,6.55,0.196,9.8-0.161  
    c3.244-0.353,6.471-0.729,9.715-0.905c3.243-0.152,6.487-0.113,9.707,0.183c3.205,0.39,6.39,0.982,9.43,2.043  
    c2.852,1.031,5.638,2.308,8.125,4.054c1.424,2.713,2.366,5.764,4.312,8.414c2.254,2.956,5.092,5.708,9.023,6.655l1.2,0.289  
    L85.493,60.181z M61.393,40.242c-0.791-0.236-1.611-0.35-2.415-0.53c-1.606-0.386-3.255-0.493-4.883-0.713  
    c-3.279-0.25-6.564-0.238-9.832-0.033c-3.264,0.238-6.512,0.636-9.738,1.081c-3.214,0.443-6.472,0.656-9.712,0.428  
    c-0.904-0.056-1.805-0.161-2.698-0.31c2.93,0.2,5.878,0.117,8.8-0.161c3.661-0.365,7.287-1.006,10.876-1.786  
    c1.797-0.384,3.58-0.821,5.361-1.261c1.791-0.452,3.522-0.935,5.308-1.086c3.561-0.323,7.215,0.244,10.449,1.762  
    c2.999,1.391,5.636,3.545,7.453,6.299c-2.089-1.215-4.327-2.173-6.596-2.979L61.393,40.242z M76.802,53.684  
    c-1.409-1.872-2.301-4.115-3.33-6.343c4.213,3.263,7.641,7.479,10.294,12.129c-1.149-0.464-2.277-1.169-3.272-1.947  
    C79.109,56.421,77.876,55.115,76.802,53.684z"/></svg>